<?xml version="1.0" encoding="utf-8"?>
<svg xmlns="http://www.w3.org/2000/svg" xmlns:xlink="http://www.w3.org/1999/xlink" style="margin: 0; background: display: block; z-index: 1; position: absolute; shape-rendering: auto;" width="1337" height="650" preserveAspectRatio="xMidYMid" viewBox="0 0 1337 650">
<g transform="translate(668.5,350) scale(1,1) translate(-668.5,-350)"><g transform="translate(-100 111.55090669806617) rotate(0)">
  <animateTransform attributeName="transform" type="translate" keyTimes="0;1" values="-100 111.55090669806617;1337 111.55090669806617" dur="62.5s" repeatCount="indefinite" begin="-41.88509659206628s"></animateTransform>
  <path d="M84.717,33.597c0.791-2.503,1.186-5.138,1.186-7.773C85.903,11.594,74.308,0,60.079,0 c-9.881,0-18.445,5.534-22.793,13.702c-1.581-0.527-3.426-0.791-5.138-0.791c-9.486,0-17.128,7.642-17.128,17.128 c0,1.186,0.132,2.372,0.395,3.426C6.719,34.783,0,42.424,0,51.515C0,61.66,8.169,69.829,18.314,69.829h63.373 C91.831,69.829,100,61.66,100,51.515C99.868,42.556,93.281,35.046,84.717,33.597z" fill="#d9d9f7" transform="scale(0.441)"></path>
</g><g transform="translate(-100 143.13401493665967) rotate(0)">
  <animateTransform attributeName="transform" type="translate" keyTimes="0;1" values="-100 143.13401493665967;1337 143.13401493665967" dur="62.5s" repeatCount="indefinite" begin="-16.72921490660617s"></animateTransform>
  <path d="M84.717,33.597c0.791-2.503,1.186-5.138,1.186-7.773C85.903,11.594,74.308,0,60.079,0 c-9.881,0-18.445,5.534-22.793,13.702c-1.581-0.527-3.426-0.791-5.138-0.791c-9.486,0-17.128,7.642-17.128,17.128 c0,1.186,0.132,2.372,0.395,3.426C6.719,34.783,0,42.424,0,51.515C0,61.66,8.169,69.829,18.314,69.829h63.373 C91.831,69.829,100,61.66,100,51.515C99.868,42.556,93.281,35.046,84.717,33.597z" fill="#d9d9f7" transform="scale(0.441)"></path>
</g><g transform="translate(-100 527.5596282899604) rotate(0)">
  <animateTransform attributeName="transform" type="translate" keyTimes="0;1" values="-100 527.5596282899604;1337 527.5596282899604" dur="62.5s" repeatCount="indefinite" begin="-59.79706789629477s"></animateTransform>
  <path d="M84.717,33.597c0.791-2.503,1.186-5.138,1.186-7.773C85.903,11.594,74.308,0,60.079,0 c-9.881,0-18.445,5.534-22.793,13.702c-1.581-0.527-3.426-0.791-5.138-0.791c-9.486,0-17.128,7.642-17.128,17.128 c0,1.186,0.132,2.372,0.395,3.426C6.719,34.783,0,42.424,0,51.515C0,61.66,8.169,69.829,18.314,69.829h63.373 C91.831,69.829,100,61.66,100,51.515C99.868,42.556,93.281,35.046,84.717,33.597z" fill="#d9d9f7" transform="scale(0.441)"></path>
</g><g transform="translate(-100 47.84812031235195) rotate(0)">
  <animateTransform attributeName="transform" type="translate" keyTimes="0;1" values="-100 47.84812031235195;1337 47.84812031235195" dur="31.25s" repeatCount="indefinite" begin="-7.542683283386545s"></animateTransform>
  <path d="M84.717,33.597c0.791-2.503,1.186-5.138,1.186-7.773C85.903,11.594,74.308,0,60.079,0 c-9.881,0-18.445,5.534-22.793,13.702c-1.581-0.527-3.426-0.791-5.138-0.791c-9.486,0-17.128,7.642-17.128,17.128 c0,1.186,0.132,2.372,0.395,3.426C6.719,34.783,0,42.424,0,51.515C0,61.66,8.169,69.829,18.314,69.829h63.373 C91.831,69.829,100,61.66,100,51.515C99.868,42.556,93.281,35.046,84.717,33.597z" fill="#ffffff" transform="scale(0.594)"></path>
</g><g transform="translate(-100 214.12793532777866) rotate(0)">
  <animateTransform attributeName="transform" type="translate" keyTimes="0;1" values="-100 214.12793532777866;1337 214.12793532777866" dur="31.25s" repeatCount="indefinite" begin="-23.040211169484s"></animateTransform>
  <path d="M84.717,33.597c0.791-2.503,1.186-5.138,1.186-7.773C85.903,11.594,74.308,0,60.079,0 c-9.881,0-18.445,5.534-22.793,13.702c-1.581-0.527-3.426-0.791-5.138-0.791c-9.486,0-17.128,7.642-17.128,17.128 c0,1.186,0.132,2.372,0.395,3.426C6.719,34.783,0,42.424,0,51.515C0,61.66,8.169,69.829,18.314,69.829h63.373 C91.831,69.829,100,61.66,100,51.515C99.868,42.556,93.281,35.046,84.717,33.597z" fill="#ffffff" transform="scale(0.594)"></path>
</g><g transform="translate(-100 430.1393684541225) rotate(0)">
  <animateTransform attributeName="transform" type="translate" keyTimes="0;1" values="-100 430.1393684541225;1337 430.1393684541225" dur="31.25s" repeatCount="indefinite" begin="-4.943662605321308s"></animateTransform>
  <path d="M84.717,33.597c0.791-2.503,1.186-5.138,1.186-7.773C85.903,11.594,74.308,0,60.079,0 c-9.881,0-18.445,5.534-22.793,13.702c-1.581-0.527-3.426-0.791-5.138-0.791c-9.486,0-17.128,7.642-17.128,17.128 c0,1.186,0.132,2.372,0.395,3.426C6.719,34.783,0,42.424,0,51.515C0,61.66,8.169,69.829,18.314,69.829h63.373 C91.831,69.829,100,61.66,100,51.515C99.868,42.556,93.281,35.046,84.717,33.597z" fill="#ffffff" transform="scale(0.594)"></path>
</g><g transform="translate(-100 678.8246488199791) rotate(0)">
  <animateTransform attributeName="transform" type="translate" keyTimes="0;1" values="-100 678.8246488199791;1337 678.8246488199791" dur="20.833333333333332s" repeatCount="indefinite" begin="-54.10083406972474s"></animateTransform>
  <path d="M84.717,33.597c0.791-2.503,1.186-5.138,1.186-7.773C85.903,11.594,74.308,0,60.079,0 c-9.881,0-18.445,5.534-22.793,13.702c-1.581-0.527-3.426-0.791-5.138-0.791c-9.486,0-17.128,7.642-17.128,17.128 c0,1.186,0.132,2.372,0.395,3.426C6.719,34.783,0,42.424,0,51.515C0,61.66,8.169,69.829,18.314,69.829h63.373 C91.831,69.829,100,61.66,100,51.515C99.868,42.556,93.281,35.046,84.717,33.597z" fill="#c0d8f1" transform="scale(0.747)"></path>
</g><g transform="translate(-100 614.8202498791784) rotate(0)">
  <animateTransform attributeName="transform" type="translate" keyTimes="0;1" values="-100 614.8202498791784;1337 614.8202498791784" dur="20.833333333333332s" repeatCount="indefinite" begin="-29.49329145205497s"></animateTransform>
  <path d="M84.717,33.597c0.791-2.503,1.186-5.138,1.186-7.773C85.903,11.594,74.308,0,60.079,0 c-9.881,0-18.445,5.534-22.793,13.702c-1.581-0.527-3.426-0.791-5.138-0.791c-9.486,0-17.128,7.642-17.128,17.128 c0,1.186,0.132,2.372,0.395,3.426C6.719,34.783,0,42.424,0,51.515C0,61.66,8.169,69.829,18.314,69.829h63.373 C91.831,69.829,100,61.66,100,51.515C99.868,42.556,93.281,35.046,84.717,33.597z" fill="#c0d8f1" transform="scale(0.747)"></path>
</g><g transform="translate(-100 257.3941726933124) rotate(0)">
  <animateTransform attributeName="transform" type="translate" keyTimes="0;1" values="-100 257.3941726933124;1337 257.3941726933124" dur="20.833333333333332s" repeatCount="indefinite" begin="-60.485483064393165s"></animateTransform>
  <path d="M84.717,33.597c0.791-2.503,1.186-5.138,1.186-7.773C85.903,11.594,74.308,0,60.079,0 c-9.881,0-18.445,5.534-22.793,13.702c-1.581-0.527-3.426-0.791-5.138-0.791c-9.486,0-17.128,7.642-17.128,17.128 c0,1.186,0.132,2.372,0.395,3.426C6.719,34.783,0,42.424,0,51.515C0,61.66,8.169,69.829,18.314,69.829h63.373 C91.831,69.829,100,61.66,100,51.515C99.868,42.556,93.281,35.046,84.717,33.597z" fill="#c0d8f1" transform="scale(0.747)"></path>
</g><g transform="translate(-100 142.2384667170126) rotate(0)">
  <animateTransform attributeName="transform" type="translate" keyTimes="0;1" values="-100 142.2384667170126;1337 142.2384667170126" dur="15.625s" repeatCount="indefinite" begin="-61.900570413948834s"></animateTransform>
  <path d="M84.717,33.597c0.791-2.503,1.186-5.138,1.186-7.773C85.903,11.594,74.308,0,60.079,0 c-9.881,0-18.445,5.534-22.793,13.702c-1.581-0.527-3.426-0.791-5.138-0.791c-9.486,0-17.128,7.642-17.128,17.128 c0,1.186,0.132,2.372,0.395,3.426C6.719,34.783,0,42.424,0,51.515C0,61.66,8.169,69.829,18.314,69.829h63.373 C91.831,69.829,100,61.66,100,51.515C99.868,42.556,93.281,35.046,84.717,33.597z" fill="#d9d9f7" transform="scale(0.9)"></path>
</g><g transform="translate(-100 55.56134405115487) rotate(0)">
  <animateTransform attributeName="transform" type="translate" keyTimes="0;1" values="-100 55.56134405115487;1337 55.56134405115487" dur="15.625s" repeatCount="indefinite" begin="-9.510545363585047s"></animateTransform>
  <path d="M84.717,33.597c0.791-2.503,1.186-5.138,1.186-7.773C85.903,11.594,74.308,0,60.079,0 c-9.881,0-18.445,5.534-22.793,13.702c-1.581-0.527-3.426-0.791-5.138-0.791c-9.486,0-17.128,7.642-17.128,17.128 c0,1.186,0.132,2.372,0.395,3.426C6.719,34.783,0,42.424,0,51.515C0,61.66,8.169,69.829,18.314,69.829h63.373 C91.831,69.829,100,61.66,100,51.515C99.868,42.556,93.281,35.046,84.717,33.597z" fill="#d9d9f7" transform="scale(0.9)"></path>
</g><g transform="translate(-100 342.4614137377549) rotate(0)">
  <animateTransform attributeName="transform" type="translate" keyTimes="0;1" values="-100 342.4614137377549;1337 342.4614137377549" dur="15.625s" repeatCount="indefinite" begin="-50.36060805744383s"></animateTransform>
  <path d="M84.717,33.597c0.791-2.503,1.186-5.138,1.186-7.773C85.903,11.594,74.308,0,60.079,0 c-9.881,0-18.445,5.534-22.793,13.702c-1.581-0.527-3.426-0.791-5.138-0.791c-9.486,0-17.128,7.642-17.128,17.128 c0,1.186,0.132,2.372,0.395,3.426C6.719,34.783,0,42.424,0,51.515C0,61.66,8.169,69.829,18.314,69.829h63.373 C91.831,69.829,100,61.66,100,51.515C99.868,42.556,93.281,35.046,84.717,33.597z" fill="#d9d9f7" transform="scale(0.9)"></path>
</g></g>
</svg>