<svg id="Layer_1" data-name="Layer 1" xmlns="http://www.w3.org/2000/svg" viewBox="0 0 325.46 411.54">
  <defs>
    <style>.cls-1{fill:#e0c3fc;}.cls-2{fill:#80b1e3;}</style>
  </defs>
  <polygon class="cls-1" points="263.81 116.06 325.46 116.06 325.46 0 210.03 0 210.03 61.65 263.81 61.65 263.81 116.06" />
  <rect class="cls-2" y="159.64" width="61.65" height="251.89" />
  <path class="cls-2" d="M159.52,658.65v-7a98.11,98.11,0,0,1,98-98h1.94V492h-1.94A159.65,159.65,0,0,0,97.87,651.66v7a156.92,156.92,0,0,0,61.65,124.82Z" transform="translate(-97.87 -492.01)" />
  <path class="cls-2" d="M361.66,656.52a98.64,98.64,0,0,1-98.52,97.67h-8.07a94.88,94.88,0,0,1-46.73-12.25v66.84a157.14,157.14,0,0,0,46.73,7.06h8.07A160.18,160.18,0,0,0,423.32,656.52Z" transform="translate(-97.87 -492.01)" />
</svg>