<?xml version="1.0" encoding="utf-8"?>
<svg xmlns="http://www.w3.org/2000/svg" xmlns:xlink="http://www.w3.org/1999/xlink" style="margin: auto; background: none; display: block; z-index: 1; position: relative; shape-rendering: auto;" width="1465" height="649" preserveAspectRatio="xMidYMid" viewBox="0 0 1465 649">
<g transform="translate(732.5,324.5) scale(1,1) translate(-732.5,-324.5)"><path id="path0" d="M 1250.418792419047 340.8215974204537
c 0 24.79419057923977 -6.066663652367177 7.121735591909297 -13.188399244276475 7.121735591909297
S 1224.0419939304938 365.6157879996935 1224.0419939304938 340.8215974204537
s 6.066663652367177 -7.121735591909297 13.188399244276475 -7.121735591909297
S 1250.418792419047 316.0274068412139 1250.418792419047 340.8215974204537
z" fill="none" stroke="none"></path>
<circle cx="0" cy="0" r="3.3689211625955684" fill="#9df871" opacity="0.9">
  <animateMotion begin="-2.463174318342989s" dur="10s" repeatCount="indefinite">
    <mpath xlink:href="#path0"></mpath>
  </animateMotion>
</circle><path id="path1" d="M 634.1177138209808 430.5220840801135
c 0 31.195188479429046 -7.632865266243276 8.960320095155152 -16.59318536139843 8.960320095155152
S 600.9313430981839 461.7172725595425 600.9313430981839 430.5220840801135
s 7.632865266243276 -8.960320095155152 16.59318536139843 -8.960320095155152
S 634.1177138209808 399.32689560068445 634.1177138209808 430.5220840801135
z" fill="none" stroke="none"></path>
<circle cx="0" cy="0" r="2.057903554691734" fill="#de9dd6" opacity="0.9">
  <animateMotion begin="-6.677458785658239s" dur="10s" repeatCount="indefinite">
    <mpath xlink:href="#path1"></mpath>
  </animateMotion>
</circle><path id="path2" d="M 949.0694006357392 352.3392587260344
c 0 19.24044276996026 -4.707767911798786 5.526510157329011 -10.234278069127798 5.526510157329011
S 928.6008444974836 371.5797014959947 928.6008444974836 352.3392587260344
s 4.707767911798786 -5.526510157329011 10.234278069127798 -5.526510157329011
S 949.0694006357392 333.09881595607413 949.0694006357392 352.3392587260344
z" fill="none" stroke="none"></path>
<circle cx="0" cy="0" r="2.613686885056018" fill="#e0ff77" opacity="0.9">
  <animateMotion begin="-8.694333963474612s" dur="10s" repeatCount="indefinite">
    <mpath xlink:href="#path2"></mpath>
  </animateMotion>
</circle><path id="path3" d="M 1087.028241260123 192.24303848075516
c 0 22.910125899758274 -5.605669103132343 6.580568077590143 -12.186237180722486 6.580568077590143
S 1062.6557668986782 215.15316438051343 1062.6557668986782 192.24303848075516
s 5.605669103132343 -6.580568077590143 12.186237180722486 -6.580568077590143
S 1087.028241260123 169.3329125809969 1087.028241260123 192.24303848075516
z" fill="none" stroke="none"></path>
<circle cx="0" cy="0" r="3.7909664026731686" fill="#ff708e" opacity="0.9">
  <animateMotion begin="-2.90756790657827s" dur="10s" repeatCount="indefinite">
    <mpath xlink:href="#path3"></mpath>
  </animateMotion>
</circle><path id="path4" d="M 1041.9503829045243 172.66180201679438
c 0 32.19190319043326 -7.8767422699996255 9.246610490869127 -17.12335276086875 9.246610490869127
S 1007.7036773827867 204.85370520722765 1007.7036773827867 172.66180201679438
s 7.8767422699996255 -9.246610490869127 17.12335276086875 -9.246610490869127
S 1041.9503829045243 140.46989882636112 1041.9503829045243 172.66180201679438
z" fill="none" stroke="none"></path>
<circle cx="0" cy="0" r="3.813610086142262" fill="#ff708e" opacity="0.9">
  <animateMotion begin="-1.4036295740913296s" dur="10s" repeatCount="indefinite">
    <mpath xlink:href="#path4"></mpath>
  </animateMotion>
</circle><path id="path5" d="M 1084.2704566312361 92.53571767854916
c 0 24.415332720871504 -5.97396438914941 7.012914717697135 -12.986879106846544 7.012914717697135
S 1058.296698417543 116.95105039942067 1058.296698417543 92.53571767854916
s 5.97396438914941 -7.012914717697135 12.986879106846544 -7.012914717697135
S 1084.2704566312361 68.12038495767766 1084.2704566312361 92.53571767854916
z" fill="none" stroke="none"></path>
<circle cx="0" cy="0" r="3.1393363098071805" fill="#9df871" opacity="0.9">
  <animateMotion begin="-4.028645752942641s" dur="10s" repeatCount="indefinite">
    <mpath xlink:href="#path5"></mpath>
  </animateMotion>
</circle><path id="path6" d="M 1403.375347217287 486.09244634362665
c 0 28.120792155989548 -6.880619357316591 8.077248810762956 -14.957868168079546 8.077248810762956
S 1373.459610881128 514.2132384996162 1373.459610881128 486.09244634362665
s 6.880619357316591 -8.077248810762956 14.957868168079546 -8.077248810762956
S 1403.375347217287 457.9716541876371 1403.375347217287 486.09244634362665
z" fill="none" stroke="none"></path>
<circle cx="0" cy="0" r="2.8208237772316695" fill="#51cacc" opacity="0.9">
  <animateMotion begin="-0.9785749498056506s" dur="10s" repeatCount="indefinite">
    <mpath xlink:href="#path6"></mpath>
  </animateMotion>
</circle><path id="path7" d="M 1015.1353469550778 245.11552632593168
c 0 25.14880688072997 -6.1534314708169076 7.223593465741588 -13.377024936558495 7.223593465741588
S 988.3812970819607 270.26433320666166 988.3812970819607 245.11552632593168
s 6.1534314708169076 -7.223593465741588 13.377024936558495 -7.223593465741588
S 1015.1353469550778 219.9667194452017 1015.1353469550778 245.11552632593168
z" fill="none" stroke="none"></path>
<circle cx="0" cy="0" r="2.326054916993996" fill="#de9dd6" opacity="0.9">
  <animateMotion begin="-1.052522462400003s" dur="10s" repeatCount="indefinite">
    <mpath xlink:href="#path7"></mpath>
  </animateMotion>
</circle><path id="path8" d="M 879.147067637016 481.3853691617427
c 0 22.463814786771795 -5.496465320167567 6.452372332370622 -11.948837652538188 6.452372332370622
S 855.2493923319397 503.8491839485145 855.2493923319397 481.3853691617427
s 5.496465320167567 -6.452372332370622 11.948837652538188 -6.452372332370622
S 879.147067637016 458.92155437497087 879.147067637016 481.3853691617427
z" fill="none" stroke="none"></path>
<circle cx="0" cy="0" r="3.96392207460262" fill="#9df871" opacity="0.9">
  <animateMotion begin="-9.563746293290674s" dur="10s" repeatCount="indefinite">
    <mpath xlink:href="#path8"></mpath>
  </animateMotion>
</circle><path id="path9" d="M 217.5773031113752 374.0551872856178
c 0 29.185419148253697 -7.141113195849308 8.383045925562232 -15.52415912141154 8.383045925562232
S 186.5289848685521 403.2406064338715 186.5289848685521 374.0551872856178
s 7.141113195849308 -8.383045925562232 15.52415912141154 -8.383045925562232
S 217.5773031113752 344.86976813736413 217.5773031113752 374.0551872856178
z" fill="none" stroke="none"></path>
<circle cx="0" cy="0" r="2.5391791341386996" fill="#de9dd6" opacity="0.9">
  <animateMotion begin="-6.557810412171385s" dur="10s" repeatCount="indefinite">
    <mpath xlink:href="#path9"></mpath>
  </animateMotion>
</circle><path id="path10" d="M 382.5198619145954 146.95923812995468
c 0 35.08228006431305 -8.583962143395746 10.076825124855878 -18.660787268251624 10.076825124855878
S 345.1982873780922 182.04151819426772 345.1982873780922 146.95923812995468
s 8.583962143395746 -10.076825124855878 18.660787268251624 -10.076825124855878
S 382.5198619145954 111.87695806564163 382.5198619145954 146.95923812995468
z" fill="none" stroke="none"></path>
<circle cx="0" cy="0" r="2.6115241978001533" fill="#e0ff77" opacity="0.9">
  <animateMotion begin="-7.349874647704057s" dur="10s" repeatCount="indefinite">
    <mpath xlink:href="#path10"></mpath>
  </animateMotion>
</circle><path id="path11" d="M 641.863548457143 187.713974794343
c 0 35.30843921136355 -8.639298955971931 10.141785730923573 -18.781084686895504 10.141785730923573
S 604.301379083352 223.02241400570654 604.301379083352 187.713974794343
s 8.639298955971931 -10.141785730923573 18.781084686895504 -10.141785730923573
S 641.863548457143 152.40553558297944 641.863548457143 187.713974794343
z" fill="none" stroke="none"></path>
<circle cx="0" cy="0" r="3.887233646601394" fill="#ff708e" opacity="0.9">
  <animateMotion begin="-5.497703147583104s" dur="10s" repeatCount="indefinite">
    <mpath xlink:href="#path11"></mpath>
  </animateMotion>
</circle><path id="path12" d="M 1470.7972321283282 163.4213411561373
c 0 23.55611043321889 -5.7637291485535584 6.7661168265628735 -12.529845975116432 6.7661168265628735
S 1445.7375401780955 186.97745158935618 1445.7375401780955 163.4213411561373
s 5.7637291485535584 -6.7661168265628735 12.529845975116432 -6.7661168265628735
S 1470.7972321283282 139.8652307229184 1470.7972321283282 163.4213411561373
z" fill="none" stroke="none"></path>
<circle cx="0" cy="0" r="3.3282701066603813" fill="#de9dd6" opacity="0.9">
  <animateMotion begin="-1.2267051627996994s" dur="10s" repeatCount="indefinite">
    <mpath xlink:href="#path12"></mpath>
  </animateMotion>
</circle><path id="path13" d="M 760.3506300087449 468.4103417899393
c 0 23.211507989960886 -5.679411529458514 6.667135273712169 -12.346546803170684 6.667135273712169
S 735.6575364024036 491.6218497799002 735.6575364024036 468.4103417899393
s 5.679411529458514 -6.667135273712169 12.346546803170684 -6.667135273712169
S 760.3506300087449 445.19883379997844 760.3506300087449 468.4103417899393
z" fill="none" stroke="none"></path>
<circle cx="0" cy="0" r="2.696676217084839" fill="#ff708e" opacity="0.9">
  <animateMotion begin="-7.88100832267588s" dur="10s" repeatCount="indefinite">
    <mpath xlink:href="#path13"></mpath>
  </animateMotion>
</circle><path id="path14" d="M 370.73740514312385 494.61148896063975
c 0 28.939234418268487 -7.080876506597607 8.312333290353715 -15.393209796951322 8.312333290353715
S 339.9509855492212 523.5507233789083 339.9509855492212 494.61148896063975
s 7.080876506597607 -8.312333290353715 15.393209796951322 -8.312333290353715
S 370.73740514312385 465.67225454237126 370.73740514312385 494.61148896063975
z" fill="none" stroke="none"></path>
<circle cx="0" cy="0" r="2.0278491775692693" fill="#51cacc" opacity="0.9">
  <animateMotion begin="-9.299565630450306s" dur="10s" repeatCount="indefinite">
    <mpath xlink:href="#path14"></mpath>
  </animateMotion>
</circle><path id="path15" d="M 1319.121106539511 218.48524462026205
c 0 33.1327096793753 -8.106939602400338 9.516842141948224 -17.623781744348562 9.516842141948224
S 1283.8735430508136 251.61795429963735 1283.8735430508136 218.48524462026205
s 8.106939602400338 -9.516842141948224 17.623781744348562 -9.516842141948224
S 1319.121106539511 185.35253494088676 1319.121106539511 218.48524462026205
z" fill="none" stroke="none"></path>
<circle cx="0" cy="0" r="3.2604768347735806" fill="#de9dd6" opacity="0.9">
  <animateMotion begin="-8.593493019587333s" dur="10s" repeatCount="indefinite">
    <mpath xlink:href="#path15"></mpath>
  </animateMotion>
</circle><path id="path16" d="M 311.7032747086157 317.80166570070963
c 0 30.784632282772755 -7.532410026635886 8.842394379094301 -16.37480440573019 8.842394379094301
S 278.95366589715536 348.5862979834824 278.95366589715536 317.80166570070963
s 7.532410026635886 -8.842394379094301 16.37480440573019 -8.842394379094301
S 311.7032747086157 287.0170334179369 311.7032747086157 317.80166570070963
z" fill="none" stroke="none"></path>
<circle cx="0" cy="0" r="3.5692288168456807" fill="#de9dd6" opacity="0.9">
  <animateMotion begin="-9.278014624550174s" dur="10s" repeatCount="indefinite">
    <mpath xlink:href="#path16"></mpath>
  </animateMotion>
</circle><path id="path17" d="M 1335.6382048294483 150.64267757499383
c 0 21.61244519982527 -5.288151485063629 6.207830004205131 -11.495981489268761 6.207830004205131
S 1312.6462418509107 172.25512277481909 1312.6462418509107 150.64267757499383
s 5.288151485063629 -6.207830004205131 11.495981489268761 -6.207830004205131
S 1335.6382048294483 129.03023237516857 1335.6382048294483 150.64267757499383
z" fill="none" stroke="none"></path>
<circle cx="0" cy="0" r="2.445012170350494" fill="#e0ff77" opacity="0.9">
  <animateMotion begin="-5.326519408379598s" dur="10s" repeatCount="indefinite">
    <mpath xlink:href="#path17"></mpath>
  </animateMotion>
</circle><path id="path18" d="M 1138.7836239785524 611.5449187179753
c 0 36.729290444518675 -8.986954044935418 10.549902574489407 -19.536856619424825 10.549902574489407
S 1099.709910739703 648.274209162494 1099.709910739703 611.5449187179753
s 8.986954044935418 -10.549902574489407 19.536856619424825 -10.549902574489407
S 1138.7836239785524 574.8156282734566 1138.7836239785524 611.5449187179753
z" fill="none" stroke="none"></path>
<circle cx="0" cy="0" r="3.1150305834218437" fill="#9df871" opacity="0.9">
  <animateMotion begin="-5.794404325321956s" dur="10s" repeatCount="indefinite">
    <mpath xlink:href="#path18"></mpath>
  </animateMotion>
</circle><path id="path19" d="M 1114.896648854979 159.4257309069618
c 0 35.69926037148831 -8.73492541004501 10.254042872661534 -18.988968282706544 10.254042872661534
S 1076.918712289566 195.12499127845012 1076.918712289566 159.4257309069618
s 8.73492541004501 -10.254042872661534 18.988968282706544 -10.254042872661534
S 1114.896648854979 123.7264705354735 1114.896648854979 159.4257309069618
z" fill="none" stroke="none"></path>
<circle cx="0" cy="0" r="3.2843251492895438" fill="#e0ff77" opacity="0.9">
  <animateMotion begin="-4.493118463798744s" dur="10s" repeatCount="indefinite">
    <mpath xlink:href="#path19"></mpath>
  </animateMotion>
</circle><path id="path20" d="M 1219.0467238926842 364.9684972404895
c 0 24.100794958376476 -5.897003021730414 6.922568764640052 -12.819571786370465 6.922568764640052
S 1193.4075803199432 389.069292198866 1193.4075803199432 364.9684972404895
s 5.897003021730414 -6.922568764640052 12.819571786370465 -6.922568764640052
S 1219.0467238926842 340.86770228211304 1219.0467238926842 364.9684972404895
z" fill="none" stroke="none"></path>
<circle cx="0" cy="0" r="2.617819342651752" fill="#e0ff77" opacity="0.9">
  <animateMotion begin="-0.02673419038471403s" dur="10s" repeatCount="indefinite">
    <mpath xlink:href="#path20"></mpath>
  </animateMotion>
</circle><path id="path21" d="M 134.53762232228084 477.38736156237394
c 0 19.072346779004626 -4.666638041671344 5.4782272663098395 -10.144865307981183 5.4782272663098395
S 114.24789170631848 496.4597083413786 114.24789170631848 477.38736156237394
s 4.666638041671344 -5.4782272663098395 10.144865307981183 -5.4782272663098395
S 134.53762232228084 458.3150147833693 134.53762232228084 477.38736156237394
z" fill="none" stroke="none"></path>
<circle cx="0" cy="0" r="2.173585690645991" fill="#de9dd6" opacity="0.9">
  <animateMotion begin="-2.9927562421655463s" dur="10s" repeatCount="indefinite">
    <mpath xlink:href="#path21"></mpath>
  </animateMotion>
</circle><path id="path22" d="M 1325.1402351762474 610.8165878320876
c 0 25.562985356002933 -6.254773012639015 7.3425596235327575 -13.597332636171773 7.3425596235327575
S 1297.9455699039038 636.3795731880906 1297.9455699039038 610.8165878320876
s 6.254773012639015 -7.3425596235327575 13.597332636171773 -7.3425596235327575
S 1325.1402351762474 585.2536024760847 1325.1402351762474 610.8165878320876
z" fill="none" stroke="none"></path>
<circle cx="0" cy="0" r="3.4048035548066107" fill="#de9dd6" opacity="0.9">
  <animateMotion begin="-6.589948829371037s" dur="10s" repeatCount="indefinite">
    <mpath xlink:href="#path22"></mpath>
  </animateMotion>
</circle><path id="path23" d="M 454.2509425571686 181.58213617664867
c 0 26.033779686997004 -6.369967370222671 7.4777877824353105 -13.847755152657982 7.4777877824353105
S 426.5554322518527 207.61591586364568 426.5554322518527 181.58213617664867
s 6.369967370222671 -7.4777877824353105 13.847755152657982 -7.4777877824353105
S 454.2509425571686 155.54835648965167 454.2509425571686 181.58213617664867
z" fill="none" stroke="none"></path>
<circle cx="0" cy="0" r="3.97470593564051" fill="#51cacc" opacity="0.9">
  <animateMotion begin="-5.381465570592638s" dur="10s" repeatCount="indefinite">
    <mpath xlink:href="#path23"></mpath>
  </animateMotion>
</circle><path id="path24" d="M 1278.5311965016879 115.41715768339363
c 0 35.743201492376286 -8.74567696090058 10.26666425844851 -19.01234121934909 10.26666425844851
S 1240.5065140629897 151.1603591757699 1240.5065140629897 115.41715768339363
s 8.74567696090058 -10.26666425844851 19.01234121934909 -10.26666425844851
S 1278.5311965016879 79.67395619101734 1278.5311965016879 115.41715768339363
z" fill="none" stroke="none"></path>
<circle cx="0" cy="0" r="3.547522478713806" fill="#51cacc" opacity="0.9">
  <animateMotion begin="-1.3030526847438195s" dur="10s" repeatCount="indefinite">
    <mpath xlink:href="#path24"></mpath>
  </animateMotion>
</circle><path id="path25" d="M 439.9355780266936 634.3692588234703
c 0 33.828313745456704 -8.277140597292595 9.716643309865223 -17.99378390715782 9.716643309865223
S 403.94801021237794 668.1975725689271 403.94801021237794 634.3692588234703
s 8.277140597292595 -9.716643309865223 17.99378390715782 -9.716643309865223
S 439.9355780266936 600.5409450780136 439.9355780266936 634.3692588234703
z" fill="none" stroke="none"></path>
<circle cx="0" cy="0" r="3.5897081289429695" fill="#de9dd6" opacity="0.9">
  <animateMotion begin="-5.456301240488202s" dur="10s" repeatCount="indefinite">
    <mpath xlink:href="#path25"></mpath>
  </animateMotion>
</circle><path id="path26" d="M 948.6222578699567 276.6042040480474
c 0 34.56243826891487 -8.456766810479168 9.927508864475547 -18.384275674954715 9.927508864475547
S 911.8537065200474 311.1666423169623 911.8537065200474 276.6042040480474
s 8.456766810479168 -9.927508864475547 18.384275674954715 -9.927508864475547
S 948.6222578699567 242.04176577913253 948.6222578699567 276.6042040480474
z" fill="none" stroke="none"></path>
<circle cx="0" cy="0" r="3.267734735545778" fill="#51cacc" opacity="0.9">
  <animateMotion begin="-8.922059732592809s" dur="10s" repeatCount="indefinite">
    <mpath xlink:href="#path26"></mpath>
  </animateMotion>
</circle><path id="path27" d="M 71.54161828143593 560.0934053358361
c 0 20.537893709322432 -5.0252293118554885 5.899182235656443 -10.924411547511932 5.899182235656443
S 49.69279518641206 580.6312990451586 49.69279518641206 560.0934053358361
s 5.0252293118554885 -5.899182235656443 10.924411547511932 -5.899182235656443
S 71.54161828143593 539.5555116265136 71.54161828143593 560.0934053358361
z" fill="none" stroke="none"></path>
<circle cx="0" cy="0" r="2.2175874946692224" fill="#ff708e" opacity="0.9">
  <animateMotion begin="-4.620767393630807s" dur="10s" repeatCount="indefinite">
    <mpath xlink:href="#path27"></mpath>
  </animateMotion>
</circle><path id="path28" d="M 243.9796994111535 428.50243467848856
c 0 19.441503801965315 -4.756963696225555 5.584261730351739 -10.341225426577294 5.584261730351739
S 223.2972485579989 447.9439384804539 223.2972485579989 428.50243467848856
s 4.756963696225555 -5.584261730351739 10.341225426577294 -5.584261730351739
S 243.9796994111535 409.06093087652323 243.9796994111535 428.50243467848856
z" fill="none" stroke="none"></path>
<circle cx="0" cy="0" r="2.5860301567715553" fill="#51cacc" opacity="0.9">
  <animateMotion begin="-6.463427714350014s" dur="10s" repeatCount="indefinite">
    <mpath xlink:href="#path28"></mpath>
  </animateMotion>
</circle><path id="path29" d="M 595.8865193408228 268.4171120865106
c 0 21.13908060958952 -5.172328234261265 6.071863579350182 -11.244191813611446 6.071863579350182
S 573.3981357135999 289.55619269610014 573.3981357135999 268.4171120865106
s 5.172328234261265 -6.071863579350182 11.244191813611446 -6.071863579350182
S 595.8865193408228 247.2780314769211 595.8865193408228 268.4171120865106
z" fill="none" stroke="none"></path>
<circle cx="0" cy="0" r="3.6163095924691695" fill="#de9dd6" opacity="0.9">
  <animateMotion begin="-0.14331227173933758s" dur="10s" repeatCount="indefinite">
    <mpath xlink:href="#path29"></mpath>
  </animateMotion>
</circle></g>
</svg>