<svg xmlns="http://www.w3.org/2000/svg" width="785" height="589" fill="none" style=""><rect id="backgroundrect" width="100%" height="100%" x="0" y="0" fill="none" stroke="none"/>
<defs>
<linearGradient id="paint0_linear_16_174" x1="-0.060943834483623505" y1="0.44714072346687317" x2="1.1182470321655273" y2="0.45096614956855774">
<stop stop-color="#AA367C"/>
<stop offset="1" stop-color="#4A2FBD"/>
</linearGradient>
<linearGradient id="paint1_linear_16_174" x1="-0.06095610931515694" y1="0.447128027677536" x2="1.1182633638381958" y2="0.44883763790130615">
<stop stop-color="#AA367C"/>
<stop offset="1" stop-color="#4A2FBD"/>
</linearGradient>
<linearGradient id="paint2_linear_16_174" x1="-0.06095525249838829" y1="0.44713738560676575" x2="1.1182595491409302" y2="0.44970905780792236">
<stop stop-color="#AA367C"/>
<stop offset="1" stop-color="#4A2FBD"/>
</linearGradient>
<linearGradient id="paint3_linear_16_174" x1="-0.06095307320356369" y1="0.4471328854560852" x2="1.11824631690979" y2="0.4544106125831604">
<stop stop-color="#AA367C"/>
<stop offset="1" stop-color="#4A2FBD"/>
</linearGradient>
</defs>
<g class="currentLayer" style=""><title>Layer 1</title><path d="M542.825 172.118C488.653 121.258 425.185 108.128 408.415 105.449C419.717 74.9198 437.173 29.5363 441.52 22.8209C444.332 22.4672 447.164 22.3049 449.997 22.3352C462.319 22.3352 488.703 24.8975 526.908 42.0963C582.083 66.9317 596.747 94.8651 599.656 101.698L542.825 172.118Z" fill="white" id="svg_1" class=""/><path d="M449.997 25.6847C462.052 25.6847 487.901 28.2134 525.487 45.1443C575.329 67.6183 591.43 92.7384 595.71 101.229L542.508 167.228C516.192 143.508 485.466 125.218 452.087 113.404C439.364 108.817 426.291 105.272 412.996 102.803C425.486 69.1925 439.062 34.5939 443.627 25.9526C445.115 25.8187 447.255 25.6847 450.03 25.6847H449.997ZM450.03 18.986C446.633 18.9146 443.237 19.1501 439.882 19.6894C435.969 20.9956 403.867 108.179 403.867 108.179C403.867 108.179 480.059 115.966 543.177 177.041L603.368 102.317C603.368 102.317 593.336 68.3887 528.129 39.0485C489.957 21.8497 463.356 18.9525 449.897 18.9525L450.03 18.986Z" fill="#A0C6F4" id="svg_2" class=""/><path d="M415.019 114.961C415.019 114.961 489.941 122.531 536.087 164.984" stroke="white" stroke-linecap="round" stroke-linejoin="round" id="svg_3" class=""/><path d="M479.691 111.294L507.647 56.8671L536.372 113.622L479.691 111.294Z" fill="#A0C6F4" id="svg_4" class=""/><path d="M485.125 110.523L513.081 56.0967L541.805 112.851L485.125 110.523Z" stroke="white" stroke-linecap="round" stroke-linejoin="round" id="svg_5" class=""/><path d="M458.909 15.6701C458.909 15.6701 542.942 23.3066 595.108 85.4033" stroke="white" stroke-linecap="round" stroke-linejoin="round" id="svg_6" class=""/><path d="M501.828 256.856C497.214 253.506 494.188 251.179 494.188 251.179C495.458 249.504 515.672 227.917 527.376 210.534C527.376 210.534 503.701 258.246 501.828 256.856Z" fill="white" id="svg_7" class=""/><path d="M215.435 99.6547C217.692 103.423 218.678 101.915 225.182 101.329C231.686 100.743 240.949 105.583 244.193 113.605C247.436 121.626 246.45 122.866 244.694 123.87C242.939 124.875 230.449 126.382 229.947 128.894" stroke="white" stroke-linecap="round" stroke-linejoin="round" id="svg_8" class=""/><path d="M383.92 507.369L378.085 497.505L357.419 532.02L362.837 536.207L383.92 507.369Z" fill="#ecabab" id="svg_9" class="" fill-opacity="1"/><path d="M246.667 421.878C246.667 421.878 235.95 404.444 240.548 395.887L274.723 399.554L246.667 421.878Z" fill="#ecabab" id="svg_10" class="" fill-opacity="1"/><path d="M246.667 421.878L248.707 426.6L242.404 451.251C242.005 452.774 242.044 454.378 242.514 455.879C242.984 457.381 243.867 458.72 245.062 459.742L276.312 413.471C277.744 411.341 278.371 408.77 278.08 406.219C277.789 403.668 276.599 401.305 274.723 399.554L267.734 393.057L246.667 421.878Z" fill="#000000" id="svg_11" class="" fill-opacity="1"/><path d="M229.948 128.961C239.729 128.727 252.135 128.107 249.644 120.588C247.152 113.069 237.94 94.5136 216.789 100.09C216.789 100.09 209.349 106.303 218.645 117.49C227.941 128.677 229.948 128.961 229.948 128.961Z" fill="#2A1E33" id="svg_12" class=""/><path d="M279.472 399.889C279.472 399.889 262.752 350.487 276.897 328.8C288.601 310.898 326.688 340.003 331.905 343.872L359.175 294.603C359.175 294.603 352.888 285.761 337.439 277.103C321.99 268.445 258.137 242.521 228.125 289.947C217.04 307.465 216.873 382.674 238.157 411.495L279.472 399.889Z" fill="#3B3B5F" id="svg_13" class=""/><path d="M279.472 399.889C279.472 399.889 262.752 350.487 276.897 328.8C288.601 310.897 326.688 340.003 331.905 343.872" stroke="white" stroke-linecap="round" stroke-linejoin="round" id="svg_14" class=""/><path d="M359.175 294.603C346.769 307.682 310.002 371.386 301.726 401.782C290.674 442.51 294.837 476.288 355.63 542.454L385.007 499.582C385.007 499.582 364.341 468.165 368.287 438.541C373.872 395.686 404.318 354.137 419.717 327.778L359.175 294.603Z" fill="#3B3B5F" id="svg_15" class=""/><path d="M363.84 300.129L412.712 338.563L427.325 316.323L363.84 300.129Z" fill="#ababec" id="svg_16" class="" fill-opacity="1"/><path d="M665.3989992370606,198.1360015258789 C673.0229992370605,199.77700152587892 678.8299992370605,202.6860015258789 682.8209992370605,206.86100152587892 C686.8169992370606,211.04800152587893 685.0109992370606,213.2250015258789 683.5569992370605,214.49800152587892 C682.1019992370606,215.7700015258789 676.4669992370606,214.31300152587892 671.5679992370606,209.95900152587893 C666.6699992370606,205.6050015258789 665.3989992370606,198.1360015258789 665.3989992370606,198.1360015258789 z" fill="#ababec" id="svg_17" class="" fill-opacity="1"/><path d="M494.9880000119209,251.97900001192093 C496.25800001192096,250.30400001192092 516.472000011921,228.71700001192093 528.1760000119209,211.33400001192092 C528.1760000119209,211.33400001192092 563.539000011921,251.02400001192092 567.3840000119209,252.31400001192094 C568.8050000119209,252.78200001192093 577.4160000119209,252.66500001192094 588.251000011921,252.56500001192092 C606.442000011921,252.36400001192092 630.635000011921,252.18000001192092 635.986000011921,254.87600001192092 C644.5130000119209,259.12900001192094 649.6290000119209,261.27300001192094 651.7520000119209,267.2520000119209 C653.876000011921,273.23000001192094 654.7290000119209,277.1320000119209 649.6290000119209,277.48400001192095 C643.6600000119209,277.91900001192096 639.8310000119209,270.23200001192095 639.8310000119209,270.23200001192095 C634.2090000119209,273.2570000119209 628.3550000119209,275.8270000119209 622.3260000119209,277.91900001192096 C622.3260000119209,277.91900001192096 576.9980000119209,295.53700001192095 546.702000011921,287.01300001192095 C538.4590000119209,284.6850000119209 494.9880000119209,251.97900001192093 494.9880000119209,251.97900001192093 z" fill="#f4cdcd" id="svg_18" class="" fill-opacity="1" opacity="1"/><path d="M220.23100001192094,91.83799998807908 C216.35200001192092,93.32849998807907 213.97800001192093,95.10359998807907 216.23500001192093,98.85489998807907 C218.49200001192094,102.60599998807908 219.47800001192093,101.11599998807907 225.98200001192092,100.52999998807907 C232.48600001192094,99.94299998807907 241.74900001192094,104.78299998807907 244.99300001192094,112.80499998807908 C248.23600001192094,120.82699998807907 247.25000001192092,122.06599998807907 245.49400001192092,123.07099998807907 C243.73900001192092,124.07499998807907 231.24900001192094,125.58299998807907 230.74800001192094,128.09499998807908 C230.24600001192093,130.60699998807908 235.76400001192093,137.99199998807907 247.31700001192092,137.50599998807908 L250.05900001192092,137.00399998807907 C250.05900001192092,137.00399998807907 274.2520000119209,160.66699998807908 277.7640000119209,164.16699998807908 C281.27500001192095,167.66699998807908 306.9900000119209,185.13399998807907 321.23500001192093,188.68399998807908 C332.0030000119209,191.37999998807908 353.8390000119209,187.91399998807907 366.9470000119209,185.33499998807906 C373.3170000119209,184.07899998807906 377.64800001192094,183.05699998807907 377.64800001192094,183.05699998807907 C377.64800001192094,183.05699998807907 367.80000001192093,165.28899998807907 365.7930000119209,137.99199998807907 C365.7930000119209,137.99199998807907 342.2520000119209,141.77699998807907 326.60200001192095,145.22599998807908 C326.60200001192095,145.22599998807908 290.08600001192093,124.82899998807908 272.3300000119209,115.80299998807907 C272.3300000119209,115.80299998807907 256.81400001192094,96.77829998807907 249.55700001192093,94.26629998807907 C242.30100001192093,91.75429998807907 225.48100001192094,89.84519998807907 220.23100001192094,91.83799998807908 z" fill="#f4cdcd" id="svg_19" class="" fill-opacity="1"/><path d="M366.08 186.218C372.45 184.962 376.781 183.941 376.781 183.941C376.781 183.941 364.86 168.869 362.87 141.605C362.87 141.605 357.486 147.416 359.158 162.873C361.265 182.4 366.08 186.218 366.08 186.218Z" fill="white" id="svg_20" class=""/><path d="M363.1680000119209,138.541 C363.1680000119209,138.541 363.5030000119209,171.917 372.4310000119209,185.833 L375.6250000119209,184.544 C375.6250000119209,184.544 333.57400001192093,233.829 319.9640000119209,266.033 C317.7410000119209,271.308 407.29200001192095,328.599 420.5170000119209,327.795 C420.5170000119209,327.795 464.1560000119209,261.093 479.03700001192095,241.315 L495.08800001192094,253.775 C495.08800001192094,253.775 526.538000011921,221.855 528.226000011921,210.535 C528.226000011921,210.535 497.8460000119209,173.508 473.0510000119209,162.656 C448.2550000119209,151.804 425.8680000119209,133.249 399.1660000119209,133.835 C376.05900001192094,134.187 363.1680000119209,138.541 363.1680000119209,138.541 z" fill="#6767e7" id="svg_21" class="" fill-opacity="1" stroke="#ffffff" stroke-opacity="1"/><path d="M494.221 253.774L478.187 241.315L480.745 234.348L494.221 253.774Z" fill="white" id="svg_22" class=""/><path d="M518.632 121.827C515.823 130.586 507.714 155.89 498.668 159.005C489.623 162.12 480.277 158.218 480.277 158.218L470.646 163.141C469.576 166.373 461.968 169.153 452.154 169.539C444.881 169.823 440.45 160.462 442.607 153.696C443.593 150.581 447.288 135.275 447.288 135.275C447.288 135.275 455.08 106.538 462.336 100.609C469.593 94.6809 476.247 88.786 495.391 96.5398C524.551 108.396 518.632 121.827 518.632 121.827Z" fill="#f4cdcd" id="svg_23" class="" fill-opacity="1"/><path d="M460.497,122.28299998807907 C459.21,127.64199998807908 453.642,138.39399998807906 449.98,136.45099998807908 C446.319,134.50899998807907 445.048,129.58499998807906 447.623,120.12299998807907 C450.198,110.66099998807907 452.354,89.19199998807908 459.644,85.32349998807908 C466.934,81.45499998807907 470.161,85.95989998807907 470.161,85.95989998807907 C470.161,85.95989998807907 466.934,70.28499998807906 476.381,68.12469998807907 C476.381,68.12469998807907 479.591,66.63419998807908 478.304,77.36889998807906 C479.554,74.41709998807907 481.754,71.96849998807907 484.553,70.41199998807907 C487.352,68.85549998807907 490.59,68.28029998807907 493.753,68.77779998807907 C505.457,70.06729998807907 509.62,86.61299998807907 509.62,86.61299998807907 C509.959,85.24639998807908 510.769,84.04339998807907 511.907,83.21619998807907 C513.044,82.38899998807906 514.437,81.99069998807907 515.84,82.09139998807908 C521.207,82.09139998807908 529.366,90.04609998807908 527.426,98.83809998807907 C527.426,98.83809998807907 541.153,94.53419998807907 548.443,105.53699998807907 C555.733,116.53899998807907 554.88,128.52999998807908 537.291,133.25299998807907 C518.899,138.19299998807907 519.067,116.70699998807908 516.274,113.90999998807906 C513.482,111.11299998807907 510.489,107.89799998807906 500.19,111.76699998807906 C489.89,115.63499998807907 479.156,104.24699998807907 479.156,104.24699998807907 C479.156,104.24699998807907 477.484,117.99599998807908 475.729,119.31899998807907 C473.973,120.64199998807906 470.579,122.33399998807907 471.432,115.88599998807908 C472.284,109.43899998807908 473.371,110.07499998807907 472.719,108.36699998807907 C472.067,106.65899998807907 469.175,101.21599998807908 463.072,106.00599998807907 C456.217,111.26399998807906 460.497,122.28299998807907 460.497,122.28299998807907 z" fill="#242424" id="svg_24" class="" fill-opacity="1"/><path d="M463.423 125.461C459.327 122.112 456.484 115.949 460.079 109.887C463.674 103.825 469.576 103.004 471.365 105.298C473.154 107.593 473.856 111.461 472.167 116.05" stroke="#2A1E33" stroke-linecap="round" stroke-linejoin="round" id="svg_25" class=""/><path d="M362.853 536.207L364.893 540.913L358.59 565.564C358.191 567.086 358.23 568.691 358.7 570.192C359.17 571.694 360.053 573.033 361.248 574.055L392.464 527.783C393.897 525.654 394.524 523.083 394.232 520.532C393.941 517.981 392.751 515.618 390.876 513.867L383.887 507.369L362.853 536.207Z" fill="#000000" id="svg_26" class="" fill-opacity="1"/><path d="M470.161 86.7597C470.161 86.7597 467.753 78.9724 460.581 76.9126" stroke="#2A1E33" stroke-linecap="round" stroke-linejoin="round" id="svg_27" class=""/><path d="M318.094 263.672L404.67 142.543" stroke="white" stroke-linecap="round" stroke-linejoin="round" id="svg_28" class=""/><path d="M440.366 151.017C437.24 155.086 435.819 172.57 450.181 173.692C458.372 174.508 466.61 172.696 473.706 168.517" stroke="white" stroke-linecap="round" stroke-linejoin="round" id="svg_29" class=""/><path d="M248.674 95.1499C248.674 95.1499 258.572 108.263 260.127 112.935" stroke="white" stroke-linecap="round" stroke-linejoin="round" id="svg_30" class=""/><path d="M619.252 271.04C619.252 271.04 625.939 276.483 639.031 269.365C643.796 266.803 640.402 260.758 634.35 262.265C628.297 263.772 621.141 261.511 621.141 261.511" stroke="white" stroke-linecap="round" stroke-linejoin="round" id="svg_31" class=""/><path d="M646.873 260.49C646.873 260.49 653.21 267.909 653.042 272.313" stroke="white" stroke-linecap="round" stroke-linejoin="round" id="svg_32" class=""/><path d="M553.509 259.686C553.509 259.686 559.244 252.033 566.584 251.514" stroke="white" stroke-linecap="round" stroke-linejoin="round" id="svg_33" class=""/><path d="M311.657 158.469C311.657 158.469 315.001 148.019 325.735 146.11" stroke="white" stroke-linecap="round" stroke-linejoin="round" id="svg_34" class=""/><path d="M340.733 317.027L327.926 341.494C327.926 341.494 285.725 413.019 300.054 459.239" stroke="white" stroke-linecap="round" stroke-linejoin="round" id="svg_35" class=""/><path d="M378.118 399.085L419.634 327.795C419.634 327.795 474.057 248.734 479.624 237.664L498.836 202.077" stroke="white" stroke-linecap="round" stroke-linejoin="round" id="svg_36" class=""/><path d="M323.913 271.275C323.913 271.275 397.764 325.199 419.65 327.795" stroke="white" stroke-linecap="round" stroke-linejoin="round" id="svg_37" class=""/><path d="M362.368 138.541C362.368 138.541 362.368 172.386 371.414 186.252" stroke="white" stroke-linecap="round" stroke-linejoin="round" id="svg_38" class=""/><path d="M525.002 205.175C522.678 219.109 491.863 248.399 491.863 248.399" stroke="white" stroke-linecap="round" stroke-linejoin="round" id="svg_39" class=""/><path d="M295.004 378.872C297.424 378.872 299.385 376.908 299.385 374.484C299.385 372.061 297.424 370.097 295.004 370.097C292.585 370.097 290.624 372.061 290.624 374.484C290.624 376.908 292.585 378.872 295.004 378.872Z" fill="white" id="svg_40" class=""/><path d="M706.379 468.852L703.954 452.055L718.25 461.584L710.776 463.208L706.379 468.852Z" stroke="#ecabab" stroke-linecap="round" stroke-linejoin="round" id="svg_41" class="" stroke-opacity="1"/><path d="M231.95400607967377,182.89899595880507 C204.85100607967377,158.9339959588051 160.05900607967374,218.6699959588051 323.9130060796738,408.81099595880505 C418.46300607967373,518.5019959588051 492.7830060796738,528.3319959588051 502.8150060796738,490.16699595880505 C520.8720060796737,421.70599595880503 455.66500607967373,404.40699595880506 479.9420060796738,431.2179959588051 C515.2210060796738,470.20499595880506 615.5560060796738,478.4439959588051 690.3440060796738,442.06999595880507 C764.1290060796737,406.1649959588051 718.7680060796738,350.41599595880507 714.1870060796738,347.1499959588051 " stroke="#ffffff" stroke-linecap="round" stroke-linejoin="round" id="svg_42" class="" stroke-opacity="1"/><path d="M691.582 445.306C694.001 445.306 695.962 443.342 695.962 440.919C695.962 438.495 694.001 436.531 691.582 436.531C689.162 436.531 687.201 438.495 687.201 440.919C687.201 443.342 689.162 445.306 691.582 445.306Z" fill="white" id="svg_43" class="" stroke="#ababec" stroke-opacity="1"/><path d="M627.779 476.773L757.742 403.389" stroke="#ffffff" stroke-linecap="round" stroke-linejoin="round" id="svg_44" class="" stroke-opacity="1"/><path d="M234.663 190.037C237.082 190.037 239.043 188.072 239.043 185.649C239.043 183.226 237.082 181.261 234.663 181.261C232.243 181.261 230.282 183.226 230.282 185.649C230.282 188.072 232.243 190.037 234.663 190.037Z" fill="white" id="svg_45" class=""/><path d="M346.468 104.394C351.667 104.394 355.881 100.173 355.881 94.9656C355.881 89.7585 351.667 85.5372 346.468 85.5372C341.269 85.5372 337.055 89.7585 337.055 94.9656C337.055 100.173 341.269 104.394 346.468 104.394Z" fill="#FF6D66" id="svg_46" class=""/><path d="M655.1849999880791,346.333 L610.6939999880791,325.45 C609.908999988079,325.062 609.2509999880791,324.459 608.7939999880791,323.712 C608.3379999880791,322.964 608.1019999880791,322.103 608.114999988079,321.227 C608.1269999880791,320.35 608.3869999880791,319.496 608.8639999880791,318.761 C609.340999988079,318.027 610.0159999880791,317.443 610.8109999880791,317.077 L693.5069999880791,280.636 C694.085999988079,280.379 694.7129999880791,280.247 695.345999988079,280.247 C695.9789999880791,280.247 696.605999988079,280.379 697.1849999880791,280.636 L754.032999988079,305.053 L655.1849999880791,346.333 z" fill="#b3d1ef" id="svg_49" class="" fill-opacity="1"/><path d="M653.293 277.672C653.393 296.093 656.035 346.334 656.035 346.334L754.883 304.986L752.659 235.069C752.63 234.077 752.356 233.108 751.863 232.248C751.369 231.388 750.671 230.664 749.83 230.14C748.989 229.616 748.031 229.309 747.043 229.245C746.055 229.182 745.066 229.364 744.165 229.777L659.078 268.629C657.342 269.412 655.871 270.684 654.844 272.289C653.817 273.895 653.278 275.765 653.293 277.672Z" fill="#9ccdff" id="svg_50" class="" fill-opacity="1"/><path d="M655.985 346.333L754.833 304.986L752.609 235.068C752.609 235.068 751.957 227.432 744.115 229.776" stroke="white" stroke-linecap="round" stroke-linejoin="round" id="svg_51" class="" fill="#9ccdff" fill-opacity="1"/><path d="M703.82 296.076L710.492 280.284" stroke="white" stroke-linecap="round" stroke-linejoin="round" id="svg_52" class=""/><path d="M710.492 296.076L717.163 280.284" stroke="white" stroke-linecap="round" stroke-linejoin="round" id="svg_53" class=""/><path d="M646.505 186.402H631.541V201.391H646.505V186.402Z" fill="#FFE1C0" id="svg_60" class=""/><path d="M633.564 388.518L638.011 396.239L642.459 403.959H633.564H624.686L629.116 396.239L633.564 388.518Z" fill="#A0C6F4" id="svg_61" class=""/><path d="M292.472 18.6138C292.642 16.9298 291.178 15.4027 289.203 15.2028C287.228 15.0028 285.489 16.2058 285.319 17.8898C285.149 19.5738 286.613 21.101 288.588 21.3009C290.563 21.5009 292.302 20.2978 292.472 18.6138Z" stroke="white" stroke-linecap="round" stroke-linejoin="round" id="svg_65" class=""/><path d="M567.771 114.626L617.58 152.809C617.839 153.009 618.135 153.155 618.451 153.239C618.767 153.323 619.096 153.343 619.42 153.298C619.744 153.252 620.056 153.143 620.337 152.975C620.618 152.808 620.863 152.586 621.057 152.323L628.581 142.107C628.951 141.598 629.11 140.966 629.026 140.342C628.942 139.718 628.621 139.151 628.13 138.758L579.024 99.3866C578.763 99.1785 578.464 99.0256 578.143 98.9371C577.821 98.8486 577.486 98.8264 577.156 98.8718C576.826 98.9172 576.509 99.0293 576.223 99.2013C575.938 99.3733 575.69 99.6016 575.496 99.8723L567.27 111.26C566.9 111.776 566.746 112.417 566.84 113.045C566.933 113.673 567.267 114.24 567.771 114.626Z" fill="white" stroke="white" stroke-linecap="round" stroke-linejoin="round" id="svg_70" class=""/><path d="M571.45 112.918L583.521 121.409L590.661 112.885L578.572 102.786L571.45 112.918Z" fill="#FF6D66" id="svg_71" class=""/><path d="M588.069 124.725L600.174 134.337L606.662 126.349L594.473 116.452L588.069 124.725Z" fill="#FAD8B0" id="svg_72" class=""/><path d="M604.237 138.021L616.326 146.512L622.077 139.11L610.641 129.514L604.237 138.021Z" fill="#A0C6F4" id="svg_73" class=""/><path d="M405.472 198.477H246.718C241.657 198.477 237.555 202.586 237.555 207.654V229.174C237.555 234.242 241.657 238.351 246.718 238.351H405.472C410.532 238.351 414.635 234.242 414.635 229.174V207.654C414.635 202.586 410.532 198.477 405.472 198.477Z" fill="#7595EC" id="svg_82" class=""/><path d="M345.983 210.216H259.441C257.77 210.216 256.415 211.573 256.415 213.247C256.415 214.922 257.77 216.279 259.441 216.279H345.983C347.654 216.279 349.009 214.922 349.009 213.247C349.009 211.573 347.654 210.216 345.983 210.216Z" fill="white" id="svg_83" class=""/><path d="M257.284 224.149H404.402" stroke="white" stroke-linecap="round" stroke-linejoin="round" id="svg_84" class=""/><path d="M182.008 123.451L184.511 126.196C185.02 126.753 185.286 127.49 185.252 128.245C185.218 128.999 184.886 129.709 184.33 130.218L180.231 133.968C179.675 134.477 178.939 134.744 178.186 134.71C177.433 134.676 176.724 134.343 176.215 133.786L173.712 131.041L182.008 123.451Z" fill="#91BA83" id="svg_85" class=""/><path d="M159.465 118.115L171.272 131.061C171.882 131.73 172.918 131.777 173.587 131.166L181.746 123.7C182.415 123.089 182.462 122.051 181.851 121.382L170.045 108.436C169.435 107.767 168.398 107.72 167.73 108.331L159.57 115.797C158.902 116.408 158.855 117.446 159.465 118.115Z" stroke="white" stroke-linecap="round" stroke-linejoin="round" id="svg_86" class=""/><path d="M147.134 176.941H132.304V190.505H147.134V176.941Z" fill="#FF6D66" id="svg_87" class=""/><path d="M132.304 168.215V176.94H123.442" stroke="#ffffff" stroke-linecap="round" stroke-linejoin="round" id="svg_88" class="" stroke-opacity="1"/><path d="M219.531 107.609C65.7089 43.7709 -52.6006 166.725 237.237 354.991C260.06 369.829 295.071 375.087 295.071 375.087" stroke="#ffffff" stroke-linecap="round" stroke-linejoin="round" id="svg_91" class="" stroke-opacity="1"/><path d="M78.0982 116.284C80.5176 116.284 82.4788 114.32 82.4788 111.897C82.4788 109.474 80.5176 107.509 78.0982 107.509C75.6789 107.509 73.7177 109.474 73.7177 111.897C73.7177 114.32 75.6789 116.284 78.0982 116.284Z" fill="white" id="svg_92" class="" stroke="#ffffff" stroke-opacity="1"/><path d="M50.2096 87.7981L55.0082 83.176L66.0265 89.5063L71.5775 106.638L54.6403 99.5375L50.2096 87.7981Z" stroke="#ffffff" stroke-linecap="round" stroke-linejoin="round" id="svg_93" class="" stroke-opacity="1"/><path d="M55.0082 83.176L50.2096 87.798L47.5177 84.5324L52.1156 80.1113L55.0082 83.176Z" stroke="#ffffff" stroke-linecap="round" stroke-linejoin="round" id="svg_94" class="" stroke-opacity="1"/><path d="M71.5776 106.638L60.5592 94.5303" stroke="#ffffff" stroke-linecap="round" stroke-linejoin="round" id="svg_95" class="" stroke-opacity="1"/><path d="M440.467 568.662L490.961 555.131L492.9 560.607L441.821 573.887L440.467 568.662Z" stroke="white" stroke-linecap="round" stroke-linejoin="round" id="svg_100"/><path d="M433.444 561.595L434.916 566.184" stroke="white" stroke-linecap="round" stroke-linejoin="round" id="svg_101"/><path d="M432.023 564.592L436.287 563.119" stroke="white" stroke-linecap="round" stroke-linejoin="round" id="svg_102"/><path d="M431.003 579.129L433.745 587.804" stroke="white" stroke-linecap="round" stroke-linejoin="round" id="svg_103"/><path d="M428.663 584.622L436.253 582.21" stroke="white" stroke-linecap="round" stroke-linejoin="round" id="svg_104"/><path d="M419.45 564.827L423.045 576.315" stroke="white" stroke-linecap="round" stroke-linejoin="round" id="svg_105"/><path d="M415.889 571.978L426.522 568.578" stroke="white" stroke-linecap="round" stroke-linejoin="round" id="svg_106"/><path d="M191.643 289.478C169.104 273.234 146.967 247.98 156.681 222.039C156.681 222.039 172.214 211.673 196.809 224.635L221.421 237.664L191.643 289.478Z" fill="#8a8ae9" id="svg_114" class="" fill-opacity="1"/><path d="M181.427 397.712C171.278 392.906 128.007 370.331 120.299 331.764C113.611 298.471 139.092 253.54 151.833 233.678C151.013 260.021 177.431 282.328 190.171 291.505C201.012 299.489 212.974 305.821 225.667 310.295L181.427 397.712Z" fill="white" id="svg_115" class=""/><path d="M149.893 241.516C152.652 259.033 165.994 277.17 188.7 293.548C198.945 301.121 210.202 307.215 222.139 311.651L180.34 394.38C167.566 388.016 129.829 366.48 122.79 331.278C116.955 302.022 136.751 263.22 149.927 241.516H149.893ZM156.715 222.04C156.715 222.04 108.813 286.883 117.875 332.266C126.937 377.65 182.614 400.928 182.614 400.928L229.212 308.821C214.649 303.479 205.186 299.125 191.676 289.378C169.138 273.134 147.001 247.88 156.715 221.939V222.04Z" fill="#8a8ae9" id="svg_116" class="" fill-opacity="1"/><path d="M144.091 259.719C145.496 268.154 148.824 276.151 153.818 283.087C158.811 290.024 165.336 295.712 172.883 299.71" stroke="white" stroke-linecap="round" stroke-linejoin="round" id="svg_117" class=""/><path d="M186.794 309.022L212.793 322.972" stroke="white" stroke-linecap="round" stroke-linejoin="round" id="svg_118" class=""/><path d="M147.803 296.93C147.803 296.93 156.163 315.536 183.082 327.627" stroke="white" stroke-linecap="round" stroke-linejoin="round" id="svg_119" class=""/><path d="M126.435 299.711C126.435 299.711 127.372 319.254 140.363 325.769" stroke="white" stroke-linecap="round" stroke-linejoin="round" id="svg_120" class=""/><path d="M156.163 231.82C156.163 231.82 153.755 256.94 191.642 289.479" stroke="white" stroke-linecap="round" stroke-linejoin="round" id="svg_121" class=""/><path d="M170.091 236.475C170.091 236.475 182.162 235.537 199.802 248.566" stroke="white" stroke-linecap="round" stroke-linejoin="round" id="svg_122" class=""/><path d="M113.243 316.558C112.474 329.001 114.029 374.099 179.236 402.87" stroke="white" stroke-linecap="round" stroke-linejoin="round" id="svg_123" class=""/><path d="M529.684 291.471L502.029 346.987C502.029 346.987 520.789 353.903 506.125 375.456C506.125 375.456 540.802 389.858 563.491 352.463C586.18 315.067 529.684 291.471 529.684 291.471Z" fill="#8a8ae9" id="svg_124" class="" fill-opacity="1"/><path d="M466.382 461.148C452.388 461.148 437.624 455.421 422.459 444.117L474.191 358.24L504.972 377.649L505.172 377.733C510.552 379.711 516.245 380.698 521.976 380.647C531.697 380.707 541.191 377.701 549.112 372.056L511.292 436.949C511.208 437.067 494.923 461.199 466.382 461.199V461.148Z" fill="white" id="svg_125" class=""/><path d="M475.027 361.757L503.45 379.693L503.818 379.927L504.203 380.078C509.89 382.184 515.912 383.239 521.976 383.193C528.943 383.219 535.838 381.77 542.207 378.939L509.202 435.493C508.132 437.067 492.816 458.637 466.399 458.637C453.508 458.637 439.865 453.529 425.787 443.447L475.027 361.757ZM563.491 352.446C550.667 373.58 534.031 378.169 521.976 378.169C516.572 378.214 511.204 377.289 506.125 375.439L473.371 354.79L419.216 444.754C437.307 458.72 453.14 463.744 466.399 463.744C496.679 463.744 513.465 438.256 513.465 438.256L563.491 352.53V352.446Z" fill="#8a8ae9" id="svg_126" class="" fill-opacity="1"/><path d="M502.029 346.986C502.029 346.986 522.661 354.288 506.125 375.456" stroke="white" stroke-linecap="round" stroke-linejoin="round" id="svg_127" class=""/><path d="M472.719 352.848C472.719 352.848 500.825 378.637 516.375 378.453C531.924 378.269 550.182 374.585 560.933 355.996" stroke="#ababec" stroke-linecap="round" stroke-linejoin="round" id="svg_128" class="" stroke-opacity="1"/><path d="M476.18 386.207C476.18 386.207 495.458 403.355 517.027 397.846" stroke="white" stroke-linecap="round" stroke-linejoin="round" id="svg_129" class=""/><path d="M496.428 411.83C496.428 411.83 506.543 419.416 520.688 412.231" stroke="white" stroke-linecap="round" stroke-linejoin="round" id="svg_130" class=""/><path d="M449.88 422.414C449.88 422.414 473.288 445.675 509.988 430.335" stroke="#8a8ae9" stroke-linecap="round" stroke-linejoin="round" id="svg_131" class="" stroke-opacity="1"/><path d="M462.587 399.722C462.587 399.722 472.117 406.554 478.086 408.732" stroke="white" stroke-linecap="round" stroke-linejoin="round" id="svg_132" class=""/><path d="M534.432 307.581C534.432 307.581 555.75 314.565 558.308 342.749" stroke="white" stroke-linecap="round" stroke-linejoin="round" id="svg_133" class=""/><path d="M545.149 342.398C545.149 342.398 554.964 357.62 538.378 372.826" stroke="white" stroke-linecap="round" stroke-linejoin="round" id="svg_134" class=""/><path d="M421.122 440.567C421.122 440.567 474.625 507.687 513.499 429.196" stroke="#8a8ae9" stroke-linecap="round" stroke-linejoin="round" id="svg_135" class="" stroke-opacity="1"/></g></svg>