<svg id="Layer_1" data-name="Layer 1" xmlns="http://www.w3.org/2000/svg" viewBox="0 0 1249.13 417.1">
  <defs>
    <style>.cls-1{fill:#e0c3fc;}.cls-2{fill:#80b1e3;}</style>
  </defs>
  <polygon class="cls-1" points="263.81 116.06 325.46 116.06 325.46 0 210.03 0 210.03 61.65 263.81 61.65 263.81 116.06" />
  <rect class="cls-2" y="159.64" width="61.65" height="251.89" />
  <path class="cls-2" d="M159.52,658.65v-7a98.11,98.11,0,0,1,98-98h1.94V492h-1.94A159.65,159.65,0,0,0,97.87,651.66v7a156.92,156.92,0,0,0,61.65,124.82Z" transform="translate(-97.87 -492.01)" />
  <path class="cls-2" d="M361.66,656.52a98.64,98.64,0,0,1-98.52,97.67h-8.07a94.88,94.88,0,0,1-46.73-12.25v66.84a157.14,157.14,0,0,0,46.73,7.06h8.07A160.18,160.18,0,0,0,423.32,656.52Z" transform="translate(-97.87 -492.01)" />
  <path class="cls-2" d="M454.44,492.44h69.23v146q33.06-50.52,99.18-50.52,111,0,111,137.85V902.87H664.64V734.46q0-40.55-14-60.19t-50.84-19.65q-34.93,0-55.51,24.33T523.67,740.7V902.87H454.44Z" transform="translate(-97.87 -492.01)" />
  <path class="cls-2" d="M762.56,594.12h69.23v169q0,39.92,15,59.57t50.53,19.65q34.94,0,54.89-23.08t20-66.12v-159h69.24V902.87H972.14v-43q-34.3,49.27-95.43,49.28-59.88,0-87-38.05t-27.13-95.43Z" transform="translate(-97.87 -492.01)" />
  <path class="cls-2" d="M1114.34,635q48-47.09,116-47.09,63.63,0,110.4,39.92l-43,49.27q-24.33-22.46-66.12-22.45-39.91,0-67.37,27.13t-27.44,67q0,39.3,26.82,66.43t69.86,27.14q46.79,0,75.47-26.82l38,52.39q-48,41.17-116.64,41.17-68,0-116-46.78t-48-113.53Q1066.32,682.07,1114.34,635Z" transform="translate(-97.87 -492.01)" />
</svg>